<?xml version="1.0" encoding="UTF-8" standalone="no"?>
<svg
   xmlns:dc="http://purl.org/dc/elements/1.1/"
   xmlns:cc="http://creativecommons.org/ns#"
   xmlns:rdf="http://www.w3.org/1999/02/22-rdf-syntax-ns#"
   xmlns:svg="http://www.w3.org/2000/svg"
   xmlns="http://www.w3.org/2000/svg"
   height="300"
   width="1500"
   id="learninghome"
   viewBox="0 0 1500 300"
   version="1.1">
  <rect
     style="fill:#ffffff"
     y="0"
     x="0"
     id="background"
     height="100%"
     width="100%" />
  <g id="icon" aria-label="learningHouse - Logo">
  <path
     style="stroke-width:1.05811632"
     d="M 350.6549,142.24782 200.65437,23.596075 l -63.68799,50.37753 -0.0205,-29.44257 h -31.46026 l -0.0137,54.35459 -54.817079,43.362195 19.350165,25.2437 19.893975,-15.73705 v 121.8416 H 311.40971 V 151.7534 l 19.89502,15.73705 z m -70.7396,99.35371 H 121.39344 V 126.84138 l 79.26093,-62.696495 79.26093,62.696495 z"
     id="house" />
  <path
     style="fill:#008000;stroke-width:0.2503565"
     id="chip"
     d="M 245.43439,133.48631 V 121.22986 H 233.17794 V 101.9181 h -8.35966 v 19.31176 H 214.28253 V 101.9181 h -8.35966 v 19.31176 H 195.38712 V 101.9181 h -8.35965 v 19.31176 H 176.49171 V 101.9181 h -8.35965 v 19.31176 h -12.25671 v 12.25645 h -19.31174 v 8.35965 h 19.31174 v 10.53576 h -19.31174 v 8.35965 h 19.31174 v 10.53575 h -19.31174 v 8.35966 h 19.31174 v 10.53575 h -19.31174 v 8.35965 h 19.31174 v 12.25646 h 12.25646 v 19.31201 h 8.35965 V 210.7889 h 10.53576 v 19.31175 h 8.35965 V 210.7889 h 10.53575 v 19.31175 h 8.35966 V 210.7889 h 10.53575 v 19.31175 h 8.35966 V 210.7889 h 12.25645 v -12.25646 h 19.312 v -8.35966 h -19.31175 v -10.53575 h 19.31175 v -8.35966 h -19.31175 v -10.53575 h 19.31175 v -8.35965 h -19.31175 v -10.53575 h 19.31175 v -8.35941 h -19.31175 z m -8.35941,68.94268 h -2.4e-4 -72.83948 v -72.83923 h 72.83972 z" />
  <path
     id="brain"
     d="m 225.9711,160.41484 c 0,-4.84313 -3.00019,-9.06842 -7.27662,-10.83039 -0.29042,-5.69326 -5.01328,-10.23581 -10.77714,-10.23581 -2.79452,0 -5.34406,1.06784 -7.26267,2.8165 -1.91861,-1.74866 -4.46816,-2.8165 -7.26268,-2.8165 -5.76406,0 -10.48713,4.54255 -10.77713,10.23581 -4.27686,1.76198 -7.27663,5.98727 -7.27663,10.83039 0,2.02428 0.51681,3.93 1.42506,5.59265 -0.92813,1.70174 -1.42506,3.61717 -1.42506,5.59664 -2.1e-4,4.88794 3.01202,9.08343 7.27706,10.83335 0.2919,5.69178 5.01412,10.23264 10.77691,10.23264 2.79452,0 5.34407,-1.06784 7.26268,-2.8165 1.91861,1.74866 4.46815,2.8165 7.26268,2.8165 5.76301,0 10.48523,-4.54086 10.77692,-10.23264 4.2646,-1.75014 7.27704,-5.94563 7.27704,-10.83335 0,-1.97969 -0.49693,-3.89511 -1.42505,-5.59664 0.90783,-1.66285 1.42463,-3.56857 1.42463,-5.59265 z m -28.84546,21.46378 c 0,2.05875 -1.67491,3.73364 -3.73365,3.73364 -1.67891,0 -3.10165,-1.11412 -3.56982,-2.64148 2.25235,-0.55211 4.31828,-1.76304 5.90018,-3.50959 l -5.2312,-4.7383 c -0.89326,0.98647 -2.11751,1.5297 -3.44702,1.5297 -2.56329,0 -4.64846,-2.08538 -4.64846,-4.64846 0,-0.14732 0.007,-0.29359 0.0207,-0.4388 1.4202,0.61381 2.98455,0.9556 4.62796,0.9556 v -7.05785 c -2.56329,0 -4.64846,-2.08539 -4.64846,-4.64867 -2.1e-4,-1.67131 0.89832,-3.15745 2.24686,-3.97736 1.22046,1.69752 2.92748,3.04691 4.95938,3.8091 l 2.47874,-6.60827 c -1.44894,-0.54344 -2.42251,-1.94925 -2.42251,-3.49797 0,-2.05873 1.6749,-3.73364 3.73364,-3.73364 2.05874,0 3.73364,1.67491 3.73364,3.73364 z m 21.7671,-10.71328 c 0.0138,0.14521 0.0207,0.29148 0.0207,0.4388 0,2.56329 -2.08539,4.64846 -4.64867,4.64846 -1.32931,0 -2.55356,-0.54323 -3.44681,-1.5297 l -5.23099,4.7383 c 1.58211,1.74655 3.64782,2.9577 5.90019,3.50959 -0.46819,1.52756 -1.89114,2.6415 -3.56984,2.6415 -2.05874,0 -3.73364,-1.67491 -3.73364,-3.73366 v -31.73848 c 0,-2.05874 1.6749,-3.73366 3.73364,-3.73366 2.05854,0 3.73365,1.67492 3.73365,3.73366 0,1.54871 -0.97357,2.95453 -2.42252,3.49796 l 2.47874,6.60828 c 2.0319,-0.7622 3.73872,-2.1118 4.95938,-3.8091 1.34854,0.81991 2.24708,2.30625 2.24708,3.97735 0,2.56329 -2.08539,4.64867 -4.64866,4.64867 v 7.05785 c 1.64298,0 3.20753,-0.342 4.62773,-0.95581 z"
     style="stroke-width:0.21137014" />
  </g>
  <g id="text_learning" aria-label="learning">
  <path
     d="M 393.72911,177.85635 H 374.23782 V 74.619734 h 19.49129 z"
     style="fill:#008000;stroke-width:1.47480881"
     id="path23" />
  <path
     d="m 443.26388,179.20058 q -15.9963,0 -26.078,-9.81286 -10.0145,-9.81285 -10.0145,-26.14521 v -1.88192 q 0,-10.95545 4.23432,-19.5585 4.23431,-8.67026 11.96362,-13.30784 7.79652,-4.7048 17.74379,-4.7048 14.92092,0 23.45676,9.40959 8.60306,9.40959 8.60306,26.6829 v 7.93094 h -46.30862 q 0.94096,7.12441 5.64575,11.42593 4.77201,4.30153 12.03083,4.30153 11.2243,0 17.54216,-8.13257 l 9.54401,10.6866 q -4.36873,6.18344 -11.82919,9.67843 -7.46046,3.42778 -16.53399,3.42778 z m -2.21798,-59.68367 q -5.78017,0 -9.40959,3.89826 -3.5622,3.89825 -4.57037,11.15708 h 27.01896 v -1.54586 q -0.13442,-6.45229 -3.49499,-9.94728 -3.36056,-3.5622 -9.54401,-3.5622 z"
     style="fill:#008000;stroke-width:1.47480881"
     id="path25" />
  <path
     d="m 526.40431,177.85635 q -1.34423,-2.62124 -1.94913,-6.5195 -7.05719,7.86373 -18.3487,7.86373 -10.6866,0 -17.74379,-6.18344 -6.98998,-6.18345 -6.98998,-15.59303 0,-11.56036 8.53584,-17.7438 8.60305,-6.18343 24.80099,-6.25065 h 8.9391 v -4.16711 q 0,-5.04085 -2.62124,-8.06536 -2.55403,-3.02451 -8.13257,-3.02451 -4.90643,0 -7.72931,2.3524 -2.75566,2.35239 -2.75566,6.45229 h -19.42408 q 0,-6.31787 3.89826,-11.69477 3.89826,-5.37691 11.02266,-8.40142 7.1244,-3.09172 15.9963,-3.09172 13.44227,0 21.306,6.78834 7.93093,6.72114 7.93093,18.9536 v 31.52212 q 0.0672,10.35055 2.89009,15.66024 v 1.14259 z M 510.3408,164.34687 q 4.30152,0 7.93094,-1.88191 3.62941,-1.94913 5.3769,-5.17528 v -12.50131 h -7.25882 q -14.58486,0 -15.52582,10.08171 l -0.0672,1.14259 q 0,3.62941 2.55403,5.98181 2.55403,2.35239 6.98998,2.35239 z"
     style="fill:#008000;stroke-width:1.47480881"
     id="path27" />
  <path
     d="m 599.05977,123.34795 q -3.96547,-0.53769 -6.98998,-0.53769 -11.02266,0 -14.45043,7.46046 v 47.58563 h -19.42408 v -72.72267 h 18.34869 l 0.53769,8.67026 q 5.84739,-10.01449 16.19794,-10.01449 3.22614,0 6.04902,0.87375 z"
     style="fill:#008000;stroke-width:1.47480881"
     id="path29" />
  <path
     d="m 626.34759,105.13368 0.6049,8.40142 q 7.79652,-9.74565 20.90273,-9.74565 11.56035,0 17.2061,6.78835 5.64576,6.78834 5.78018,20.29782 v 46.98073 H 651.41742 V 131.3461 q 0,-6.18344 -2.68845,-8.93911 -2.68846,-2.82287 -8.93911,-2.82287 -8.19979,0 -12.29968,6.98998 v 51.28225 H 608.0661 v -72.72267 z"
     style="fill:#008000;stroke-width:1.47480881"
     id="path31" />
  <path
     d="m 706.12743,177.85635 h -19.49129 v -72.72267 h 19.49129 z M 685.49355,86.314508 q 0,-4.368738 2.89008,-7.191614 2.9573,-2.822877 7.99816,-2.822877 4.97363,0 7.93093,2.822877 2.9573,2.822876 2.9573,7.191614 0,4.435949 -3.02451,7.258825 -2.9573,2.822876 -7.86372,2.822876 -4.90643,0 -7.93094,-2.822876 -2.9573,-2.822876 -2.9573,-7.258825 z"
     style="fill:#008000;stroke-width:1.47480881"
     id="path33" />
  <path
     d="m 740.06918,105.13368 0.6049,8.40142 q 7.79651,-9.74565 20.90273,-9.74565 11.56035,0 17.2061,6.78835 5.64575,6.78834 5.78018,20.29782 v 46.98073 H 765.13901 V 131.3461 q 0,-6.18344 -2.68846,-8.93911 -2.68845,-2.82287 -8.93911,-2.82287 -8.19978,0 -12.29967,6.98998 v 51.28225 h -19.42408 v -72.72267 z"
     style="fill:#008000;stroke-width:1.47480881"
     id="path35" />
  <path
     d="m 796.52671,140.95733 q 0,-16.73563 7.93094,-26.95175 7.99815,-10.21613 21.50763,-10.21613 11.96362,0 18.61754,8.19979 l 0.80654,-6.85556 h 17.60937 v 70.30307 q 0,9.54402 -4.36874,16.6012 -4.30152,7.05719 -12.16525,10.75381 -7.86373,3.69663 -18.41591,3.69663 -7.99815,0 -15.59303,-3.22615 -7.59488,-3.15893 -11.49314,-8.19978 l 8.60305,-11.82919 q 7.25883,8.13256 17.60938,8.13256 7.7293,0 12.03083,-4.1671 4.30152,-4.09989 4.30152,-11.69477 v -3.89826 q -6.72113,7.59488 -17.67658,7.59488 -13.10621,0 -21.23879,-10.21612 -8.06536,-10.28334 -8.06536,-27.2206 z m 19.42408,1.41143 q 0,9.88007 3.96547,15.52583 3.96547,5.57854 10.88824,5.57854 8.8719,0 12.70294,-6.65393 v -30.58116 q -3.89826,-6.65392 -12.56852,-6.65392 -6.98998,0 -11.02266,5.71296 -3.96547,5.71297 -3.96547,17.07168 z"
     style="fill:#008000;stroke-width:1.47480881"
     id="path37" />
  </g>
  <g id="text_house" aria-label="House">
  <path
     id="path123"
     style="stroke-width:1.68997383"
     d="m 996.53308,176.18639 h -29.70655 v -61.78967 h -57.92781 v 61.78967 H 879.19215 V 32.01051 h 29.70657 v 58.422919 h 57.92781 V 32.01051 h 29.70655 z" />
  <path
     id="path125"
     style="stroke-width:1.68997383"
     d="m 1016.2385,121.62532 q 0,-15.94252 6.1393,-28.419278 6.1394,-12.476759 17.6259,-19.30927 11.5856,-6.83251 26.835,-6.83251 21.6858,0 35.3508,13.268934 13.764,13.268934 15.3484,36.043964 l 0.198,7.32762 q 0,24.65645 -13.764,39.60876 -13.7641,14.85328 -36.9352,14.85328 -23.1711,0 -37.0342,-14.85328 -13.764,-14.85328 -13.764,-40.40093 z m 28.6173,2.07946 q 0,15.24937 5.7433,23.36917 5.7433,8.02077 16.4376,8.02077 10.3973,0 16.2396,-7.92175 5.8423,-8.02077 5.8423,-25.54765 0,-14.9523 -5.8423,-23.171117 -5.8423,-8.218818 -16.4376,-8.218818 -10.4963,0 -16.2396,8.218818 -5.7433,8.119787 -5.7433,25.250577 z" />
  <path
     id="path127"
     style="stroke-width:1.68997383"
     d="m 1199.7261,165.29398 q -10.5954,12.87284 -29.3105,12.87284 -17.2298,0 -26.3398,-9.90218 -9.011,-9.90219 -9.2091,-29.01342 V 69.0447 h 28.6173 v 69.2163 q 0,16.7347 15.2494,16.7347 14.5562,0 20.0024,-10.10023 V 69.0447 h 28.7164 v 107.14169 h -26.934 z" />
  <path
     id="path129"
     style="stroke-width:1.68997383"
     d="m 1307.2639,146.57884 q 0,-5.24816 -5.2482,-8.21882 -5.1491,-3.06968 -16.6357,-5.4462 -38.2224,-8.02078 -38.2224,-32.47918 0,-14.259152 11.7836,-23.765254 11.8826,-9.605124 30.9938,-9.605124 20.3985,0 32.5782,9.605124 12.2787,9.605124 12.2787,24.953514 h -28.6173 q 0,-6.139354 -3.9609,-10.10023 -3.9608,-4.059898 -12.3777,-4.059898 -7.2286,0 -11.1895,3.267723 -3.9608,3.267722 -3.9608,8.31784 0,4.753045 4.4559,7.723705 4.555,2.87163 15.2494,5.05011 10.6944,2.07946 18.022,4.75305 22.676,8.31784 22.676,28.81538 0,14.65524 -12.5758,23.76525 -12.5758,9.01099 -32.4792,9.01099 -13.4669,0 -23.9633,-4.75305 -10.3973,-4.85207 -16.3386,-13.16991 -5.9413,-8.41686 -5.9413,-18.121 h 27.132 q 0.3961,7.62468 5.6443,11.68459 5.2481,4.0599 14.0611,4.0599 8.2188,0 12.3777,-3.06968 4.258,-3.1687 4.258,-8.21883 z" />
  <path
     id="path131"
     style="stroke-width:1.68997383"
     d="m 1402.721,178.16682 q -23.5673,0 -38.4205,-14.45719 -14.7543,-14.4572 -14.7543,-38.51952 v -2.77261 q 0,-16.14057 6.2384,-28.81537 6.2384,-12.773825 17.6259,-19.606336 11.4865,-6.931532 26.1417,-6.931532 21.9829,0 34.5587,13.863065 12.6748,13.863066 12.6748,39.311693 v 11.68458 h -68.2261 q 1.3863,10.49632 8.3178,16.83372 7.0306,6.3374 17.725,6.3374 16.5366,0 25.8447,-11.98165 l 14.0611,15.74449 q -6.4364,9.11001 -17.4279,14.25916 -10.9914,5.05011 -24.3593,5.0501 z m -3.2678,-87.931435 q -8.5159,0 -13.863,5.74327 -5.2482,5.743265 -6.7335,16.437635 h 39.8068 v -2.27751 q -0.1981,-9.5061 -5.1492,-14.655234 -4.9511,-5.248161 -14.0611,-5.248161 z" />
  </g>
  <g id="text_slogan" aria-label="Teach your smart home everything">
  <path
     id="path134"
     style="font-size:58.66666794px;letter-spacing:5.30000019px;fill:#999999"
     d="m 405.27423,229.13829 h -12.77605 v 34.7474 h -8.59375 v -34.7474 h -12.60416 v -6.96094 h 33.97396 z" />
  <path
     id="path136"
     style="font-size:58.66666794px;letter-spacing:5.30000019px;fill:#999999"
     d="m 426.70183,264.4586 q -6.81771,0 -11.11458,-4.18229 -4.26823,-4.18229 -4.26823,-11.14323 V 248.331 q 0,-4.66927 1.80469,-8.33594 1.80468,-3.69531 5.09895,-5.67187 3.32292,-2.00521 7.5625,-2.00521 6.35938,0 9.9974,4.01042 3.66667,4.01041 3.66667,11.37239 v 3.38021 h -19.73698 q 0.40104,3.03646 2.40625,4.86979 2.03385,1.83334 5.1276,1.83334 4.78386,0 7.47657,-3.46615 l 4.0677,4.5547 q -1.86198,2.6354 -5.04166,4.125 -3.17969,1.46093 -7.04688,1.46092 z m -0.94531,-25.4375 q -2.46354,0 -4.01042,1.66146 -1.51823,1.66146 -1.94791,4.75521 h 11.51562 v -0.65885 q -0.0573,-2.75 -1.48958,-4.23959 -1.43229,-1.51823 -4.06771,-1.51823 z" />
  <path
     id="path138"
     style="font-size:58.66666794px;letter-spacing:5.30000019px;fill:#999999"
     d="m 467.43673,263.88569 q -0.57292,-1.11719 -0.83073,-2.77865 -3.00781,3.35156 -7.82031,3.35156 -4.55469,0 -7.5625,-2.63541 -2.97917,-2.63542 -2.97917,-6.64584 0,-4.92707 3.63802,-7.5625 3.66667,-2.63541 10.57031,-2.66406 h 3.8099 v -1.77604 q 0,-2.14844 -1.11719,-3.4375 -1.08854,-1.28906 -3.46614,-1.28906 -2.09115,0 -3.29427,1.0026 -1.17448,1.00261 -1.17448,2.75 h -8.27865 q 0,-2.69271 1.66146,-4.98437 1.66146,-2.29167 4.69792,-3.58073 3.03645,-1.31771 6.8177,-1.31771 5.72917,0 9.08073,2.89323 3.38021,2.86458 3.38021,8.07812 v 13.43491 q 0.0286,4.41145 1.23177,6.67448 v 0.48698 z m -6.84636,-5.75781 q 1.83334,0 3.38021,-0.80209 1.54688,-0.83073 2.29167,-2.20573 v -5.32812 h -3.09375 q -6.21615,0 -6.61719,4.29687 l -0.0286,0.48698 q 0,1.54688 1.08854,2.54948 1.08854,1.00261 2.97916,1.00261 z" />
  <path
     id="path140"
     style="font-size:58.66666794px;letter-spacing:5.30000019px;fill:#999999"
     d="m 499.17683,257.78413 q 2.29167,0 3.72396,-1.26042 1.43229,-1.26042 1.48959,-3.35156 h 7.76302 q -0.0286,3.15104 -1.71875,5.78645 -1.69011,2.60678 -4.64063,4.06771 -2.92187,1.43229 -6.47396,1.43229 -6.64583,0 -10.48437,-4.21093 -3.83854,-4.23959 -3.83854,-11.6875 v -0.54427 q 0,-7.16146 3.80989,-11.42969 3.8099,-4.26823 10.45573,-4.26823 5.81511,0 9.3099,3.32292 3.52343,3.29427 3.58073,8.79427 h -7.76302 q -0.0573,-2.40625 -1.48959,-3.89584 -1.43229,-1.51823 -3.78125,-1.51823 -2.89323,0 -4.38281,2.1198 -1.46094,2.09114 -1.46094,6.8177 v 0.85938 q 0,4.78385 1.46094,6.87501 1.46094,2.09115 4.4401,2.09114 z" />
  <path
     id="path142"
     style="font-size:58.66666794px;letter-spacing:5.30000019px;fill:#999999"
     d="m 530.25809,236.2711 q 3.29427,-3.95312 8.27864,-3.95312 10.08334,0 10.22657,11.71615 v 19.85156 h -8.27865 v -19.6224 q 0,-2.66406 -1.14583,-3.92448 -1.14584,-1.28906 -3.8099,-1.28906 -3.63802,0 -5.27083,2.80729 v 22.02865 h -8.27865 v -44 h 8.27865 z" />
  <path
     id="path144"
     style="font-size:58.66666794px;letter-spacing:5.30000019px;fill:#999999"
     d="m 591.90496,252.16954 5.72917,-19.27864 h 8.88021 l -12.46094,35.80729 -0.6875,1.63281 q -2.77865,6.07293 -9.16667,6.07293 -1.80468,0 -3.66666,-0.54427 v -6.27344 l 1.26041,0.0286 q 2.34896,0 3.4948,-0.71616 1.17447,-0.71615 1.83333,-2.37761 l 0.97396,-2.54947 -10.85677,-31.08072 h 8.90885 z" />
  <path
     id="path146"
     style="font-size:58.66666794px;letter-spacing:5.30000019px;fill:#999999"
     d="m 613.33256,248.10183 q 0,-4.61198 1.77605,-8.22135 1.77604,-3.60938 5.09895,-5.58594 3.35157,-1.97656 7.76303,-1.97656 6.27343,0 10.22656,3.83854 3.98177,3.83854 4.4401,10.42708 l 0.0573,2.1198 q 0,7.13281 -3.98177,11.45833 -3.98177,4.29687 -10.68489,4.29687 -6.70313,0 -10.71354,-4.29687 -3.98178,-4.29688 -3.98178,-11.6875 z m 8.27865,0.60157 q 0,4.41145 1.66146,6.76041 1.66146,2.32032 4.75521,2.32032 3.00781,0 4.69791,-2.29167 1.69011,-2.32031 1.69011,-7.39063 0,-4.32552 -1.69011,-6.70312 -1.6901,-2.37761 -4.7552,-2.37761 -3.03646,0 -4.69792,2.37761 -1.66146,2.34896 -1.66146,7.30469 z" />
  <path
     id="path148"
     style="font-size:58.66666794px;letter-spacing:5.30000019px;fill:#999999"
     d="m 671.7133,260.73465 q -3.0651,3.72395 -8.47916,3.72395 -4.98438,0 -7.6198,-2.86458 -2.60677,-2.86458 -2.66406,-8.39323 V 232.8909 h 8.27865 v 20.02343 q 0,4.84116 4.41146,4.84116 4.21093,0 5.78645,-2.92188 v -21.9427 h 8.3073 v 30.99479 h -7.79167 z" />
  <path
     id="path150"
     style="font-size:58.66666794px;letter-spacing:5.30000019px;fill:#999999"
     d="m 708.75289,240.65392 q -1.6901,-0.22917 -2.97916,-0.22917 -4.69792,0 -6.15886,3.17969 v 20.28125 h -8.27864 V 232.8909 h 7.82031 l 0.22917,3.69531 q 2.49218,-4.26823 6.90364,-4.26823 1.375,0 2.57813,0.3724 z" />
  <path
     id="path152"
     style="font-size:58.66666794px;letter-spacing:5.30000019px;fill:#999999"
     d="m 754.81641,255.32058 q 0,-1.51823 -1.51823,-2.3776 -1.48958,-0.88802 -4.8125,-1.57552 -11.05729,-2.32031 -11.05729,-9.39583 0,-4.125 3.40885,-6.875 3.4375,-2.77865 8.96615,-2.77865 5.90104,0 9.42448,2.77865 3.55208,2.77864 3.55208,7.21875 h -8.27864 q 0,-1.77605 -1.14584,-2.92188 -1.14583,-1.17448 -3.58073,-1.17448 -2.09114,0 -3.23697,0.94531 -1.14584,0.94532 -1.14584,2.40625 0,1.375 1.28906,2.23438 1.31771,0.83073 4.41146,1.46094 3.09375,0.60156 5.21354,1.375 6.5599,2.40625 6.5599,8.33593 0,4.23959 -3.63802,6.875 -3.63802,2.60677 -9.39583,2.60677 -3.89584,0 -6.9323,-1.375 -3.00781,-1.40364 -4.72656,-3.80989 -1.71875,-2.4349 -1.71875,-5.24219 h 7.84896 q 0.11458,2.20573 1.63281,3.38021 1.51823,1.17448 4.06771,1.17448 2.37761,0 3.58073,-0.88802 1.23177,-0.91667 1.23177,-2.37761 z" />
  <path
     id="path154"
     style="font-size:58.66666794px;letter-spacing:5.30000019px;fill:#999999"
     d="m 781.2284,232.8909 0.25781,3.46614 q 3.29427,-4.03906 8.90886,-4.03906 5.98697,0 8.22135,4.72656 3.26562,-4.72656 9.3099,-4.72656 5.04166,0 7.5052,2.95052 2.46355,2.92188 2.46355,8.82292 v 19.79427 h -8.3073 v -19.76563 q 0,-2.63541 -1.03125,-3.83853 -1.03125,-1.23178 -3.63802,-1.23178 -3.72396,0 -5.15625,3.55208 l 0.0286,21.28386 h -8.27865 v -19.73698 q 0,-2.69271 -1.05989,-3.89582 -1.0599,-1.20313 -3.60938,-1.20313 -3.52344,0 -5.09896,2.92188 v 21.91405 h -8.27864 V 232.8909 Z" />
  <path
     id="path156"
     style="font-size:58.66666794px;letter-spacing:5.30000019px;fill:#999999"
     d="m 847.48674,263.88569 q -0.57292,-1.11719 -0.83073,-2.77865 -3.00781,3.35156 -7.82031,3.35156 -4.55469,0 -7.5625,-2.63541 -2.97917,-2.63542 -2.97917,-6.64584 0,-4.92707 3.63802,-7.5625 3.66667,-2.63541 10.57031,-2.66406 h 3.8099 v -1.77604 q 0,-2.14844 -1.11719,-3.4375 -1.08854,-1.28906 -3.46614,-1.28906 -2.09115,0 -3.29427,1.0026 -1.17448,1.00261 -1.17448,2.75 h -8.27865 q 0,-2.69271 1.66146,-4.98437 1.66146,-2.29167 4.69792,-3.58073 3.03645,-1.31771 6.8177,-1.31771 5.72917,0 9.08073,2.89323 3.38021,2.86458 3.38021,8.07812 v 13.43491 q 0.0287,4.41145 1.23177,6.67448 v 0.48698 z m -6.84635,-5.75781 q 1.83333,0 3.3802,-0.80209 1.54688,-0.83073 2.29167,-2.20573 v -5.32812 h -3.09375 q -6.21615,0 -6.61719,4.29687 l -0.0286,0.48698 q 0,1.54688 1.08854,2.54948 1.08854,1.00261 2.97917,1.00261 z" />
  <path
     id="path158"
     style="font-size:58.66666794px;letter-spacing:5.30000019px;fill:#999999"
     d="m 883.75289,240.65392 q -1.6901,-0.22917 -2.97916,-0.22917 -4.69792,0 -6.15886,3.17969 v 20.28125 h -8.27864 V 232.8909 h 7.82031 l 0.22917,3.69531 q 2.49218,-4.26823 6.90364,-4.26823 1.375,0 2.57813,0.3724 z" />
  <path
     id="path160"
     style="font-size:58.66666794px;letter-spacing:5.30000019px;fill:#999999"
     d="m 904.46433,225.2711 v 7.6198 h 5.29948 v 6.07291 h -5.29948 v 15.46875 q 0,1.71875 0.65885,2.46354 0.65886,0.7448 2.52084,0.7448 1.375,0 2.43489,-0.20052 v 6.27343 q -2.43489,0.7448 -5.01302,0.7448 -8.70833,0 -8.88021,-8.79427 v -16.70052 h -4.52604 v -6.07291 h 4.52604 v -7.6198 z" />
  <path
     id="path162"
     style="font-size:58.66666794px;letter-spacing:5.30000019px;fill:#999999"
     d="m 947.7206,236.2711 q 3.29427,-3.95312 8.27864,-3.95312 10.08334,0 10.22656,11.71615 v 19.85156 h -8.27864 v -19.6224 q 0,-2.66406 -1.14583,-3.92448 -1.14584,-1.28906 -3.8099,-1.28906 -3.63802,0 -5.27083,2.80729 v 22.02865 h -8.27865 v -44 h 8.27865 z" />
  <path
     id="path164"
     style="font-size:58.66666794px;letter-spacing:5.30000019px;fill:#999999"
     d="m 976.53883,248.10183 q 0,-4.61198 1.77604,-8.22135 1.77605,-3.60938 5.09896,-5.58594 3.35157,-1.97656 7.76302,-1.97656 6.27344,0 10.22665,3.83854 3.9817,3.83854 4.4401,10.42708 l 0.057,2.1198 q 0,7.13281 -3.9818,11.45833 -3.98183,4.29687 -10.68495,4.29687 -6.70313,0 -10.71355,-4.29687 -3.98177,-4.29688 -3.98177,-11.6875 z m 8.27865,0.60157 q 0,4.41145 1.66146,6.76041 1.66146,2.32032 4.75521,2.32032 3.00781,0 4.69791,-2.29167 1.69011,-2.32031 1.69011,-7.39063 0,-4.32552 -1.69011,-6.70312 -1.6901,-2.37761 -4.75521,-2.37761 -3.03645,0 -4.69791,2.37761 -1.66146,2.34896 -1.66146,7.30469 z" />
  <path
     id="path166"
     style="font-size:58.66666794px;letter-spacing:5.30000019px;fill:#999999"
     d="m 1024.1201,232.8909 0.2578,3.46614 q 3.2943,-4.03906 8.9089,-4.03906 5.987,0 8.2214,4.72656 3.2656,-4.72656 9.3098,-4.72656 5.0417,0 7.5053,2.95052 2.4635,2.92188 2.4635,8.82292 v 19.79427 h -8.3073 v -19.76563 q 0,-2.63541 -1.0312,-3.83853 -1.0313,-1.23178 -3.6381,-1.23178 -3.7239,0 -5.1562,3.55208 l 0.029,21.28386 h -8.2786 v -19.73698 q 0,-2.69271 -1.0599,-3.89582 -1.0599,-1.20313 -3.6094,-1.20313 -3.5234,0 -5.0989,2.92188 v 21.91405 h -8.2787 V 232.8909 Z" />
  <path
     id="path168"
     style="font-size:58.66666794px;letter-spacing:5.30000019px;fill:#999999"
     d="m 1086.6832,264.4586 q -6.8177,0 -11.1146,-4.18229 -4.2683,-4.18229 -4.2683,-11.14323 V 248.331 q 0,-4.66927 1.8047,-8.33594 1.8047,-3.69531 5.099,-5.67187 3.3229,-2.00521 7.5625,-2.00521 6.3594,0 9.9974,4.01042 3.6667,4.01041 3.6667,11.37239 v 3.38021 h -19.737 q 0.401,3.03646 2.4062,4.86979 2.0339,1.83334 5.1276,1.83334 4.7839,0 7.4766,-3.46615 l 4.0677,4.5547 q -1.862,2.6354 -5.0417,4.125 -3.1797,1.46093 -7.0468,1.46092 z m -0.9454,-25.4375 q -2.4635,0 -4.0104,1.66146 -1.5182,1.66146 -1.9479,4.75521 h 11.5156 v -0.65885 q -0.057,-2.75 -1.4895,-4.23959 -1.4323,-1.51823 -4.0678,-1.51823 z" />
  <path
     id="path170"
     style="font-size:58.66666794px;letter-spacing:5.30000019px;fill:#999999"
     d="m 1143.6894,264.4586 q -6.8177,0 -11.1146,-4.18229 -4.2682,-4.18229 -4.2682,-11.14323 V 248.331 q 0,-4.66927 1.8047,-8.33594 1.8046,-3.69531 5.0989,-5.67187 3.3229,-2.00521 7.5625,-2.00521 6.3594,0 9.9974,4.01042 3.6667,4.01041 3.6667,11.37239 v 3.38021 h -19.737 q 0.401,3.03646 2.4063,4.86979 2.0338,1.83334 5.1276,1.83334 4.7838,0 7.4765,-3.46615 l 4.0677,4.5547 q -1.862,2.6354 -5.0416,4.125 -3.1797,1.46093 -7.0469,1.46092 z m -0.9453,-25.4375 q -2.4636,0 -4.0104,1.66146 -1.5183,1.66146 -1.948,4.75521 h 11.5157 v -0.65885 q -0.057,-2.75 -1.4896,-4.23959 -1.4323,-1.51823 -4.0677,-1.51823 z" />
  <path
     id="path172"
     style="font-size:58.66666794px;letter-spacing:5.30000019px;fill:#999999"
     d="m 1177.7212,253.77371 5.7578,-20.88281 h 8.651 l -10.4557,30.99479 h -7.9062 l -10.4558,-30.99479 h 8.6511 z" />
  <path
     id="path174"
     style="font-size:58.66666794px;letter-spacing:5.30000019px;fill:#999999"
     d="m 1215.0185,264.4586 q -6.8177,0 -11.1145,-4.18229 -4.2683,-4.18229 -4.2683,-11.14323 V 248.331 q 0,-4.66927 1.8047,-8.33594 1.8047,-3.69531 5.099,-5.67187 3.3229,-2.00521 7.5625,-2.00521 6.3594,0 9.9974,4.01042 3.6666,4.01041 3.6666,11.37239 v 3.38021 h -19.7369 q 0.401,3.03646 2.4062,4.86979 2.0339,1.83334 5.1276,1.83334 4.7839,0 7.4766,-3.46615 l 4.0677,4.5547 q -1.862,2.6354 -5.0417,4.125 -3.1797,1.46093 -7.0469,1.46092 z m -0.9453,-25.4375 q -2.4635,0 -4.0104,1.66146 -1.5182,1.66146 -1.9479,4.75521 h 11.5156 v -0.65885 q -0.057,-2.75 -1.4896,-4.23959 -1.4322,-1.51823 -4.0677,-1.51823 z" />
  <path
     id="path176"
     style="font-size:58.66666794px;letter-spacing:5.30000019px;fill:#999999"
     d="m 1255.2092,240.65392 q -1.6901,-0.22917 -2.9792,-0.22917 -4.6979,0 -6.1588,3.17969 v 20.28125 h -8.2787 V 232.8909 h 7.8203 l 0.2292,3.69531 q 2.4922,-4.26823 6.9037,-4.26823 1.375,0 2.5781,0.3724 z" />
  <path
     id="path178"
     style="font-size:58.66666794px;letter-spacing:5.30000019px;fill:#999999"
     d="m 1276.6654,252.16954 5.7292,-19.27864 h 8.8802 l -12.4609,35.80729 -0.6875,1.63281 q -2.7787,6.07293 -9.1667,6.07293 -1.8047,0 -3.6667,-0.54427 v -6.27344 l 1.2605,0.0286 q 2.3489,0 3.4948,-0.71616 1.1744,-0.71615 1.8333,-2.37761 l 0.9739,-2.54947 -10.8567,-31.08072 h 8.9088 z" />
  <path
     id="path180"
     style="font-size:58.66666794px;letter-spacing:5.30000019px;fill:#999999"
     d="m 1309.7519,225.2711 v 7.6198 h 5.2995 v 6.07291 h -5.2995 v 15.46875 q 0,1.71875 0.6589,2.46354 0.6588,0.7448 2.5208,0.7448 1.375,0 2.4349,-0.20052 v 6.27343 q -2.4349,0.7448 -5.013,0.7448 -8.7084,0 -8.8802,-8.79427 v -16.70052 h -4.5261 v -6.07291 h 4.5261 v -7.6198 z" />
  <path
     id="path182"
     style="font-size:58.66666794px;letter-spacing:5.30000019px;fill:#999999"
     d="m 1333.0415,236.2711 q 3.2943,-3.95312 8.2786,-3.95312 10.0834,0 10.2266,11.71615 v 19.85156 h -8.2786 v -19.6224 q 0,-2.66406 -1.1459,-3.92448 -1.1458,-1.28906 -3.8099,-1.28906 -3.638,0 -5.2708,2.80729 v 22.02865 h -8.2786 v -44 h 8.2786 z" />
  <path
     id="path184"
     style="font-size:58.66666794px;letter-spacing:5.30000019px;fill:#999999"
     d="m 1371.8858,263.88569 h -8.3073 V 232.8909 h 8.3073 z m -8.7943,-39.01563 q 0,-1.86197 1.2318,-3.0651 1.2604,-1.20312 3.4088,-1.20312 2.1198,0 3.3802,1.20312 1.2605,1.20313 1.2605,3.0651 0,1.89063 -1.2891,3.09375 -1.2604,1.20313 -3.3516,1.20313 -2.0911,0 -3.3802,-1.20313 -1.2604,-1.20312 -1.2604,-3.09375 z" />
  <path
     id="path186"
     style="font-size:58.66666794px;letter-spacing:5.30000019px;fill:#999999"
     d="m 1391.6519,232.8909 0.2578,3.58073 q 3.3229,-4.15365 8.9089,-4.15365 4.927,0 7.3333,2.89323 2.4062,2.89323 2.4635,8.65104 v 20.02344 h -8.2786 v -19.82292 q 0,-2.63542 -1.1458,-3.80989 -1.1459,-1.20313 -3.8099,-1.20313 -3.4948,0 -5.2422,2.97917 v 21.85677 h -8.2787 V 232.8909 Z" />
  <path
     id="path188"
     style="font-size:58.66666794px;letter-spacing:5.30000019px;fill:#999999"
     d="m 1421.0145,248.15913 q 0,-7.13282 3.3802,-11.48698 3.4088,-4.35417 9.1666,-4.35417 5.099,0 7.9349,3.49479 l 0.3438,-2.92187 h 7.5052 v 29.96354 q 0,4.06771 -1.862,7.07552 -1.8333,3.00781 -5.1849,4.58333 -3.3515,1.57552 -7.8489,1.57552 -3.4089,0 -6.6459,-1.375 -3.237,-1.34635 -4.8984,-3.49479 l 3.6667,-5.04167 q 3.0937,3.46615 7.5052,3.46615 3.2942,0 5.1276,-1.77604 1.8333,-1.7474 1.8333,-4.98438 v -1.66145 q -2.8646,3.23697 -7.5339,3.23697 -5.5859,0 -9.052,-4.35416 -3.4375,-4.38281 -3.4375,-11.60156 z m 8.2786,0.60156 q 0,4.21094 1.6901,6.61719 1.6901,2.3776 4.6406,2.3776 3.7813,0 5.4141,-2.83594 v -13.03385 q -1.6615,-2.83594 -5.3568,-2.83594 -2.9791,0 -4.6979,2.4349 -1.6901,2.43489 -1.6901,7.27604 z" />
  </g>
</svg>
