<?xml version="1.0" encoding="UTF-8" standalone="no"?>
<svg
   xmlns:dc="http://purl.org/dc/elements/1.1/"
   xmlns:cc="http://creativecommons.org/ns#"
   xmlns:rdf="http://www.w3.org/1999/02/22-rdf-syntax-ns#"
   xmlns:svg="http://www.w3.org/2000/svg"
   xmlns="http://www.w3.org/2000/svg"
   version="1.1"
   viewBox="0 0 300 300"
   id="learninghome"
   width="300"
   height="300">
  <rect
     width="100%"
     height="100%"
     id="background"
     x="0"
     y="0"
     style="fill:#ffffff" />
  <g
     aria-label="learningHouse - Logo"
     id="g6">

  <path
     id="house"
     d="M 300.00003,143.65175 149.9995,25 86.311507,75.37753 86.291007,45.93496 h -31.46026 l -0.0137,54.35459 -54.8170735,43.3622 19.3501645,25.2437 19.893975,-15.73705 V 275 H 260.75484 V 153.15733 l 19.89502,15.73705 z m -70.7396,99.35371 H 70.738567 V 128.24531 l 79.260933,-62.6965 79.26093,62.6965 z"
     style="stroke-width:1.05811632" />
  <path
     d="m 194.77952,134.89024 v -12.25645 h -12.25645 v -19.31176 h -8.35966 v 19.31176 H 163.62766 V 103.32203 H 155.268 v 19.31176 h -10.53575 v -19.31176 h -8.35965 v 19.31176 h -10.53576 v -19.31176 h -8.35965 v 19.31176 h -12.25671 v 12.25645 H 85.908737 v 8.35965 h 19.311743 v 10.53576 H 85.908737 v 8.35965 h 19.311743 v 10.53575 H 85.908737 v 8.35966 h 19.311743 v 10.53575 H 85.908737 v 8.35965 h 19.311743 v 12.25646 h 12.25646 v 19.31201 h 8.35965 v -19.31175 h 10.53576 v 19.31175 h 8.35965 v -19.31175 h 10.53575 v 19.31175 h 8.35966 v -19.31175 h 10.53575 v 19.31175 h 8.35966 v -19.31175 h 12.25645 v -12.25646 h 19.312 v -8.35966 h -19.31175 v -10.53575 h 19.31175 v -8.35966 h -19.31175 v -10.53575 h 19.31175 v -8.35965 h -19.31175 v -10.53575 h 19.31175 v -8.35941 h -19.31175 z m -8.35941,68.94268 h -2.4e-4 -72.83948 v -72.83923 h 72.83972 z"
     id="chip"
     style="fill:#008000;stroke-width:0.2503565" />
  <path
     style="stroke-width:0.21137014"
     d="m 175.31623,161.81877 c 0,-4.84313 -3.00019,-9.06842 -7.27662,-10.83039 -0.29042,-5.69326 -5.01328,-10.23581 -10.77714,-10.23581 -2.79452,0 -5.34406,1.06784 -7.26267,2.8165 -1.91861,-1.74866 -4.46816,-2.8165 -7.26268,-2.8165 -5.76406,0 -10.48713,4.54255 -10.77713,10.23581 -4.27686,1.76198 -7.27663,5.98727 -7.27663,10.83039 0,2.02428 0.51681,3.93 1.42506,5.59265 -0.92813,1.70174 -1.42506,3.61717 -1.42506,5.59664 -2.1e-4,4.88794 3.01202,9.08343 7.27706,10.83335 0.2919,5.69178 5.01412,10.23264 10.77691,10.23264 2.79452,0 5.34407,-1.06784 7.26268,-2.8165 1.91861,1.74866 4.46815,2.8165 7.26268,2.8165 5.76301,0 10.48523,-4.54086 10.77692,-10.23264 4.2646,-1.75014 7.27704,-5.94563 7.27704,-10.83335 0,-1.97969 -0.49693,-3.89511 -1.42505,-5.59664 0.90783,-1.66285 1.42463,-3.56857 1.42463,-5.59265 z m -28.84546,21.46378 c 0,2.05875 -1.67491,3.73364 -3.73365,3.73364 -1.67891,0 -3.10165,-1.11413 -3.56982,-2.64148 2.25235,-0.55211 4.31828,-1.76305 5.90018,-3.50959 l -5.2312,-4.7383 c -0.89326,0.98647 -2.11751,1.5297 -3.44702,1.5297 -2.56329,0 -4.64846,-2.08538 -4.64846,-4.64846 0,-0.14732 0.007,-0.29359 0.0207,-0.4388 1.4202,0.61381 2.98455,0.9556 4.62796,0.9556 v -7.05785 c -2.56329,0 -4.64846,-2.08539 -4.64846,-4.64867 -2.1e-4,-1.67131 0.89832,-3.15745 2.24686,-3.97736 1.22046,1.69752 2.92748,3.04691 4.95938,3.8091 l 2.47874,-6.60827 c -1.44894,-0.54344 -2.42251,-1.94925 -2.42251,-3.49797 0,-2.05873 1.6749,-3.73364 3.73364,-3.73364 2.05874,0 3.73364,1.67491 3.73364,3.73364 z m 21.7671,-10.71328 c 0.0138,0.14521 0.0207,0.29148 0.0207,0.4388 0,2.56329 -2.08539,4.64846 -4.64867,4.64846 -1.32931,0 -2.55356,-0.54323 -3.44681,-1.5297 l -5.23099,4.7383 c 1.58211,1.74654 3.64782,2.9577 5.90019,3.50959 -0.46819,1.52756 -1.89114,2.64149 -3.56984,2.64149 -2.05874,0 -3.73364,-1.6749 -3.73364,-3.73365 v -31.73849 c 0,-2.05874 1.6749,-3.73365 3.73364,-3.73365 2.05854,0 3.73365,1.67491 3.73365,3.73365 0,1.54871 -0.97357,2.95453 -2.42252,3.49796 l 2.47874,6.60828 c 2.0319,-0.7622 3.73872,-2.1118 4.95938,-3.8091 1.34854,0.81991 2.24708,2.30625 2.24708,3.97735 0,2.56329 -2.08539,4.64867 -4.64866,4.64867 v 7.05785 c 1.64298,0 3.20753,-0.342 4.62773,-0.95581 z"
     id="brain" />
    </g>
</svg>
